<svg xmlns="http://www.w3.org/2000/svg" viewBox="0 0 48 48" width="48" height="48" fill="none">
  <path d="M10 22C10 14 16 10 24 10C32 10 38 14 38 22H10Z" fill="#FCECD9"/>
  <rect x="8" y="26" width="32" height="4" rx="2" fill="#EAF6EE"/>
  <path d="M10 34C10 39 15 40 24 40C33 40 38 39 38 34V30H10V34Z" fill="#FCECD9"/>
  
  <path d="M10 22C10 13.5 15.5 9 24 9C32.5 9 38 13.5 38 22" stroke="#332211" stroke-width="2" stroke-linecap="round" stroke-linejoin="round"/>
  <path d="M8 22H40" stroke="#332211" stroke-width="2" stroke-linecap="round"/>
  <path d="M7 26C9 26 10 28 12 28C14 28 15 26 17 26C19 26 20 28 22 28C24 28 25 26 27 26C29 26 30 28 32 28C34 28 35 26 37 26C39 26 40 28 41 28" stroke="#332211" stroke-width="2" stroke-linecap="round" stroke-linejoin="round"/>
  <path d="M8 30H40" stroke="#332211" stroke-width="2" stroke-linecap="round"/>
  <path d="M10 30V34C10 38.5 15 40 24 40C33 40 38 38.5 38 34V30" stroke="#332211" stroke-width="2" stroke-linecap="round" stroke-linejoin="round"/>
  <circle cx="18" cy="14" r="1" fill="#332211"/>
  <circle cx="24" cy="16" r="1" fill="#332211"/>
  <circle cx="30" cy="13" r="1" fill="#332211"/>
</svg>
